<?xml version="1.0" encoding="UTF-8" standalone="no"?>
<svg
   width="23px"
   height="23px"
   viewBox="0 0 23 23"
   version="1.1"
   id="svg19"
   sodipodi:docname="eye_visible.svg"
   inkscape:version="1.2.2 (b0a8486541, 2022-12-01)"
   xmlns:inkscape="http://www.inkscape.org/namespaces/inkscape"
   xmlns:sodipodi="http://sodipodi.sourceforge.net/DTD/sodipodi-0.dtd"
   xmlns:xlink="http://www.w3.org/1999/xlink"
   xmlns="http://www.w3.org/2000/svg"
   xmlns:svg="http://www.w3.org/2000/svg">
  <sodipodi:namedview
     id="namedview21"
     pagecolor="#ffffff"
     bordercolor="#000000"
     borderopacity="0.25"
     inkscape:showpageshadow="2"
     inkscape:pageopacity="0.0"
     inkscape:pagecheckerboard="0"
     inkscape:deskcolor="#d1d1d1"
     showgrid="false"
     inkscape:zoom="37.130435"
     inkscape:cx="11.5"
     inkscape:cy="11.5"
     inkscape:window-width="2048"
     inkscape:window-height="1083"
     inkscape:window-x="0"
     inkscape:window-y="0"
     inkscape:window-maximized="1"
     inkscape:current-layer="svg19" />
  <!-- Generator: Sketch 61 (89581) - https://sketch.com -->
  <title
     id="title2">Group 7</title>
  <desc
     id="desc4">Created with Sketch.</desc>
  <defs
     id="defs7">
    <polygon
       id="path-1"
       points="0 0.0004 20 0.0004 20 13.6364 0 13.6364" />
  </defs>
  <g
     id="Login"
     stroke="none"
     stroke-width="1"
     fill="none"
     fill-rule="evenodd">
    <g
       id="Login-Active-First-Step"
       transform="translate(-1140.000000, -642.000000)">
      <g
         id="Group-7"
         transform="translate(1141.000000, 643.000000)">
        <rect
           id="Rectangle"
           stroke="#F4FDFF"
           x="0"
           y="0"
           width="21"
           height="21" />
        <g
           id="Group-3"
           transform="translate(0.000000, 3.000000)">
          <mask
             id="mask-2"
             fill="white">
            <use
               xlink:href="#path-1"
               id="use10" />
          </mask>
          <g
             id="Clip-2" />
          <path
             d="M10,2.7274 C7.746,2.7274 5.909,4.5634 5.909,6.8184 C5.909,9.0734 7.746,10.9094 10,10.9094 C12.255,10.9094 14.091,9.0734 14.091,6.8184 C14.091,4.5634 12.255,2.7274 10,2.7274 M10,4.5454 C11.254,4.5454 12.272,5.5634 12.272,6.8184 C12.272,8.0724 11.254,9.0904 10,9.0904 C8.746,9.0904 7.727,8.0724 7.727,6.8184 C7.727,5.5634 8.746,4.5454 10,4.5454 M10,-0.0006 C5.455,-0.0006 1.573,2.8274 0,6.8184 C1.573,10.8094 5.455,13.6364 10,13.6364 C14.546,13.6364 18.428,10.8094 20,6.8184 C18.428,2.8274 14.546,-0.0006 10,-0.0006 M10,1.8184 C13.445,1.8184 16.519,3.7544 18.019,6.8184 C16.519,9.8814 13.445,11.8184 10,11.8184 C6.555,11.8184 3.482,9.8814 1.982,6.8184 C3.482,3.7544 6.555,1.8184 10,1.8184"
             id="Fill-1"
             fill="#54298B"
             mask="url(#mask-2)" />
        </g>
      </g>
    </g>
  </g>
  <path
     style="fill:#54298B;stroke-width:0.0269321"
     d="M 10.449649,17.609321 C 9.1673392,17.521318 8.1653655,17.302509 7.0696721,16.871208 4.8851723,16.011316 3.0286134,14.433899 1.794757,12.389401 1.5880286,12.046852 1.1996674,11.276658 1.0784557,10.968839 l -0.060685,-0.154112 0.08256,-0.198318 C 1.9076661,8.6771015 3.3407815,6.9494387 5.1027127,5.7914195 6.5007714,4.8725536 7.9485188,4.3337277 9.6686183,4.0920705 c 0.4800697,-0.067445 1.8381327,-0.082978 2.3700237,-0.027108 1.62712,0.1709147 3.091049,0.6543576 4.45726,1.4719505 1.94535,1.1641727 3.487141,2.931208 4.375701,5.014957 l 0.112496,0.263814 -0.08627,0.207498 c -0.367066,0.882923 -0.897243,1.774943 -1.52396,2.564055 -0.359911,0.45317 -1.206533,1.302937 -1.652563,1.658701 -1.765021,1.407823 -3.796415,2.200725 -6.028196,2.352951 -0.379851,0.02591 -0.948444,0.03068 -1.243466,0.01043 z m 1.817915,-1.866213 c 0.985184,-0.150355 1.777382,-0.391341 2.619867,-0.79696 1.70713,-0.821907 3.040418,-2.096761 3.981383,-3.806892 l 0.168855,-0.30688 -0.106934,-0.212681 C 18.534984,9.8325843 17.972788,9.0675119 17.291814,8.3893443 15.878201,6.9815552 14.098546,6.1239007 12.054597,5.8654142 11.562822,5.8032222 10.405372,5.8042289 9.9276651,5.867264 8.9504872,5.9962062 8.1031058,6.2340425 7.2715564,6.6127599 5.5253498,7.4080447 4.0910202,8.747273 3.1543064,10.457021 l -0.1958566,0.35749 0.1538596,0.28888 c 0.6868247,1.289554 1.7204907,2.432762 2.9204775,3.229972 1.2103322,0.804083 2.5260833,1.278316 4.0201981,1.448991 0.503201,0.05748 1.722358,0.03588 2.214579,-0.03925 z"
     id="path196" />
  <path
     style="fill:#54298B;stroke-width:0.0269321"
     d="M 10.656853,14.878353 C 9.9399711,14.814741 9.2250624,14.551349 8.6372456,14.134273 8.3326529,13.918155 7.8580731,13.436789 7.6545522,13.137529 7.3315404,12.662567 7.1224217,12.17047 6.9987353,11.594262 6.9126098,11.193037 6.9120734,10.441537 6.997627,10.041688 7.2760723,8.740329 8.0738187,7.7158907 9.251171,7.1477646 9.8732596,6.8475784 10.445512,6.7292342 11.149883,6.7551027 c 0.620056,0.022772 1.125072,0.1488411 1.648136,0.4114308 1.171861,0.5882993 1.988967,1.6783924 2.21869,2.9599305 0.06491,0.362123 0.06549,1.034685 0.0012,1.387002 -0.164771,0.902838 -0.649246,1.763393 -1.326003,2.355328 -0.536384,0.469155 -1.208662,0.807292 -1.872473,0.9418 -0.197783,0.04008 -0.759942,0.09963 -0.871531,0.09233 -0.02963,-0.0019 -0.160593,-0.013 -0.291039,-0.02457 z m 0.708487,-1.804664 c 0.25208,-0.04084 0.54889,-0.145785 0.779808,-0.275713 0.277965,-0.1564 0.655912,-0.531286 0.819839,-0.813198 0.424929,-0.730774 0.416188,-1.668487 -0.02206,-2.3667993 C 12.623335,9.1087387 12.14696,8.7572618 11.565879,8.6019705 11.26529,8.5216395 10.740518,8.5214005 10.436186,8.6014556 9.6186636,8.8165067 8.9693468,9.476854 8.7777579,10.288056 c -0.048375,0.204824 -0.055264,0.298736 -0.044452,0.605972 0.014283,0.405875 0.053793,0.584306 0.1962687,0.886369 0.2628835,0.557341 0.7451309,0.994439 1.3131804,1.190238 0.369474,0.127352 0.75448,0.162695 1.122588,0.103054 z"
     id="path267" />
</svg>
