<?xml version="1.0" encoding="UTF-8" standalone="no"?>
<svg
   width="23px"
   height="23px"
   viewBox="0 0 23 23"
   version="1.1"
   id="svg19"
   sodipodi:docname="eye_hidden.svg"
   inkscape:version="1.2.2 (b0a8486541, 2022-12-01)"
   xmlns:inkscape="http://www.inkscape.org/namespaces/inkscape"
   xmlns:sodipodi="http://sodipodi.sourceforge.net/DTD/sodipodi-0.dtd"
   xmlns:xlink="http://www.w3.org/1999/xlink"
   xmlns="http://www.w3.org/2000/svg"
   xmlns:svg="http://www.w3.org/2000/svg">
  <sodipodi:namedview
     id="namedview21"
     pagecolor="#ffffff"
     bordercolor="#000000"
     borderopacity="0.25"
     inkscape:showpageshadow="2"
     inkscape:pageopacity="0.0"
     inkscape:pagecheckerboard="0"
     inkscape:deskcolor="#d1d1d1"
     showgrid="false"
     inkscape:zoom="37.130435"
     inkscape:cx="11.5"
     inkscape:cy="11.5"
     inkscape:window-width="2048"
     inkscape:window-height="1083"
     inkscape:window-x="0"
     inkscape:window-y="0"
     inkscape:window-maximized="1"
     inkscape:current-layer="svg19" />
  <!-- Generator: Sketch 61 (89581) - https://sketch.com -->
  <title
     id="title2">Group 7</title>
  <desc
     id="desc4">Created with Sketch.</desc>
  <defs
     id="defs7">
    <polygon
       id="path-1"
       points="0 0 19 0 19 17 0 17" />
  </defs>
  <g
     id="Login"
     stroke="none"
     stroke-width="1"
     fill="none"
     fill-rule="evenodd">
    <g
       id="Login-Active-First-Step"
       transform="translate(-1140.000000, -642.000000)">
      <g
         id="Group-7"
         transform="translate(1141.000000, 643.000000)">
        <rect
           id="Rectangle"
           stroke="#F4FDFF"
           x="0"
           y="0"
           width="21"
           height="21" />
        <g
           id="Group-3"
           transform="translate(1.000000, 2.000000)">
          <mask
             id="mask-2"
             fill="white">
            <use
               xlink:href="#path-1"
               id="use10" />
          </mask>
          <g
             id="Clip-2" />
          <path
             d="M4.41318182,4.9002611 L5.92454545,6.4537859 C5.72590909,6.94203655 5.61363636,7.47467363 5.61363636,8.03394256 C5.61363636,10.2355091 7.35818182,12.0287206 9.5,12.0287206 C10.0440909,12.0287206 10.5622727,11.9139077 11.0286364,11.7091384 L11.875,12.5797041 C11.115,12.7921671 10.3204545,12.9164491 9.5,12.9164491 C6.22681818,12.9164491 3.30772727,11.0261793 1.88272727,8.03394256 C2.48727273,6.76449086 3.36818182,5.71697128 4.41318182,4.9002611 L4.41318182,4.9002611 Z M7.34954545,7.91853786 L9.60363636,10.2355091 C9.56909091,10.2443864 9.53454545,10.2532637 9.5,10.2532637 C8.30818182,10.2532637 7.34090909,9.25900783 7.34090909,8.03394256 C7.34090909,7.98955614 7.34954545,7.96292428 7.34954545,7.91853786 L7.34954545,7.91853786 Z M0.872272727,1.26057441 L3.18681818,3.63968668 C1.77909091,4.77597911 0.665,6.28511749 0,8.03394256 C1.49409091,11.9310705 5.18181818,14.691906 9.5,14.691906 C10.8127273,14.691906 12.0736364,14.4344648 13.2309091,13.9639687 L16.1845455,17 L17.4022727,15.7483029 L2.09,0 L0.872272727,1.26057441 Z M8.57590909,4.16344648 L10.3636364,6.00104439 C10.8559091,6.2229765 11.2531818,6.63133159 11.4690909,7.13733681 L13.2568182,8.97493473 C13.3253333,8.67310705 13.3777592,8.3535248 13.3777592,8.02506527 C13.3863636,5.82349869 11.6418182,4.03916449 9.5,4.03916449 C9.18045455,4.03916449 8.87818182,4.08355091 8.57590909,4.16344648 L8.57590909,4.16344648 Z M9.5,3.15143603 C12.7731818,3.15143603 15.6922727,5.04229765 17.1172727,8.03394256 C16.6077273,9.11697128 15.8909091,10.0490862 15.0359091,10.8042472 L16.2536364,12.0553525 C17.4540909,10.9634465 18.4040909,9.59693647 19,8.03394256 C17.5059091,4.13681462 13.8181818,1.37597911 9.5,1.37597911 C8.40318182,1.37597911 7.34954545,1.5535248 6.35636364,1.88198433 L7.78136364,3.34673629 C8.34272727,3.23133159 8.91272727,3.15143603 9.5,3.15143603 L9.5,3.15143603 Z"
             id="Fill-1"
             fill="#54298B"
             mask="url(#mask-2)" />
        </g>
      </g>
    </g>
  </g>
  <path
     style="fill:#54298B;stroke-width:0.0269321"
     d="M 17.021077,18.783215 C 16.39154,18.133101 15.730524,17.455184 15.552153,17.276733 l -0.32431,-0.324455 -0.289213,0.108633 c -0.674053,0.253186 -1.54312,0.46051 -2.334415,0.556896 -0.478829,0.05832 -1.634482,0.0654 -2.100702,0.01286 C 9.2420916,17.488511 8.0742125,17.14364 7.0023419,16.596783 4.8241161,15.485475 3.1323364,13.655148 2.1411892,11.337531 L 2.0148691,11.042155 2.1281775,10.759368 C 2.2850329,10.3679 2.6672827,9.6270098 2.9202018,9.2242389 3.1609288,8.8408835 3.4969294,8.3800336 3.7939986,8.0257611 4.047777,7.7231153 4.6832694,7.0832152 4.9689696,6.8426403 5.0874707,6.7428561 5.1844262,6.6509633 5.1844262,6.638434 5.1844262,6.6259049 4.6754098,6.0919831 4.0532787,5.4519411 3.4311475,4.8118992 2.918652,4.2794648 2.9143997,4.2687536 2.9055798,4.246537 4.0592692,3.0433255 4.0893914,3.0433255 c 0.022544,0 15.2747776,15.6808165 15.2747776,15.7039945 0,0.02113 -1.166687,1.223396 -1.184252,1.220371 -0.0078,-0.0013 -0.529302,-0.534361 -1.15884,-1.184476 z m -4.885351,-2.880713 c 0.430743,-0.03451 0.776764,-0.0872 1.260583,-0.191943 0.590684,-0.127881 0.582335,-0.06142 0.07192,-0.572537 L 13.029223,14.69841 12.77737,14.788426 C 10.763468,15.508222 8.5749596,14.425372 7.8532802,12.352041 7.6983499,11.906938 7.6388424,11.543687 7.6386954,11.042155 7.6385338,10.533434 7.6867406,10.219661 7.8356311,9.7599872 L 7.9368877,9.447375 7.7188873,9.2213456 C 7.598987,9.0970295 7.2556691,8.743997 6.9559584,8.4368293 L 6.4110302,7.8783424 6.1613114,8.0857825 C 5.2881918,8.8110773 4.5331003,9.7442239 4.0128806,10.740826 l -0.1481265,0.283771 0.1037607,0.210769 c 0.3870082,0.786131 0.9381385,1.547137 1.6064267,2.218171 0.6868319,0.689654 1.3399218,1.164109 2.1814988,1.58481 1.0336052,0.516694 1.9893543,0.776342 3.2183837,0.874337 0.258015,0.02057 0.840861,0.01546 1.160902,-0.01018 z m -0.527998,-2.663317 c 0,-0.02361 -0.6031,-0.650441 -1.7331383,-1.801346 -0.3717144,-0.378579 -0.5169775,-0.510425 -0.5341071,-0.484778 -0.057774,0.0865 0.054296,0.723109 0.1755765,0.997344 0.3375702,0.763306 1.1223779,1.302231 1.9098779,1.311505 0.09999,0.0012 0.181791,-0.009 0.181791,-0.02272 z"
     id="path196" />
  <path
     style="fill:#54298B;stroke-width:0.0269321"
     d="M 14.365493,11.036103 C 13.642536,10.294527 13.48703,10.121101 13.392875,9.9514052 13.17842,9.5648937 12.869246,9.2491429 12.526215,9.0663096 12.403648,9.0009822 12.190483,8.7984662 11.504749,8.0958761 11.028132,7.6075432 10.638173,7.1963131 10.638173,7.1820313 c 0,-0.052049 0.490421,-0.1206453 0.861827,-0.1205465 0.996105,2.65e-4 1.896537,0.3635856 2.620712,1.057446 0.578755,0.5545276 0.95781,1.2164755 1.141658,1.9936882 0.0918,0.388104 0.115439,1.075546 0.05097,1.48258 -0.02446,0.154428 -0.05411,0.290416 -0.06589,0.302195 -0.01178,0.01178 -0.408662,-0.375801 -0.881961,-0.861291 z"
     id="path198" />
  <path
     style="fill:#54298B;stroke-width:0.0269321"
     d="m 17.828481,14.590457 c -0.229556,-0.2333 -0.494122,-0.504403 -0.587923,-0.602452 l -0.170548,-0.178271 0.347341,-0.346905 c 0.618494,-0.617716 1.178485,-1.376345 1.542893,-2.090181 L 19.135246,11.02984 19.016933,10.797501 C 17.697556,8.2065487 15.210258,6.4846919 12.348361,6.1811156 11.975322,6.1415454 11.082652,6.1404389 10.745902,6.1791292 10.537402,6.2030844 9.856094,6.3082929 9.8028812,6.3247518 9.7747232,6.3334611 8.4031839,4.9040356 8.4228329,4.8864583 8.4729899,4.84159 9.3005861,4.6258274 9.6955504,4.5546483 10.891209,4.3391707 12.211012,4.3436225 13.358314,4.567003 c 1.65071,0.3213944 3.132399,1.0158422 4.469842,2.0949554 0.555949,0.4485657 1.321312,1.2493438 1.753956,1.8351142 0.528826,0.715994 1.059405,1.6571254 1.32855,2.3565574 l 0.07255,0.188525 -0.111957,0.268866 c -0.408004,0.979829 -0.982622,1.91936 -1.682619,2.751172 -0.176743,0.210025 -0.900287,0.952444 -0.928229,0.952444 -0.008,0 -0.202365,-0.190881 -0.431921,-0.42418 z"
     id="path200" />
</svg>
