<svg width="48" height="48" viewBox="4 -2 40 40" fill="none" xmlns="http://www.w3.org/2000/svg">
<rect width="48" height="48" rx="8" fill="#54298B"/>
<path d="M8.00031 16.7989C8.00031 8.00675 15.2437 0.879333 24.0358 0.879333C32.8279 0.879333 40.0713 8.00675 40.0713 16.7989V25.9145H8.00031V16.7989Z" fill="#AE77F5"/>
<ellipse cx="12.1445" cy="25.6542" rx="4.14435" ry="4.08137" fill="#AE77F5"/>
<ellipse cx="35.927" cy="25.6542" rx="4.14435" ry="4.08137" fill="#AE77F5"/>
<ellipse cx="24.0357" cy="27.5077" rx="5.52584" ry="5.44186" fill="#AE77F5"/>
<ellipse cx="30.5233" cy="26.8658" rx="4.87397" ry="4.7999" fill="#AE77F5"/>
<ellipse cx="17.5482" cy="26.8658" rx="4.87397" ry="4.7999" fill="#AE77F5"/>
<rect x="12.6954" y="13.9875" width="5.83573" height="8.8334" rx="2.91786" fill="#CCA4FF"/>
<rect x="12.6954" y="10.8974" width="5.83573" height="8.8334" rx="2.91786" fill="#CCA4FF"/>
<rect x="29.5614" y="13.9875" width="5.83573" height="8.8334" rx="2.91786" fill="#CCA4FF"/>
<rect x="29.5614" y="10.8974" width="5.83573" height="8.8334" rx="2.91786" fill="#CCA4FF"/>
<rect x="12.6954" y="12.1108" width="5.83573" height="8.8334" rx="2.91786" fill="#282828"/>
<rect x="15.6131" y="13.8137" width="1.89833" height="2.71385" rx="0.949167" fill="white"/>
<rect x="29.5397" y="12.1108" width="5.83573" height="8.8334" rx="2.91786" fill="#282828"/>
<rect x="32.4576" y="13.8137" width="1.89833" height="2.71385" rx="0.949167" fill="white"/>
<path d="M27.4658 17.8355C26.5522 17.0667 25.2067 17.2139 24.3596 18.0645L24.044 18.3917L23.7118 18.0645C22.8813 17.2139 21.5192 17.0667 20.6056 17.8355C19.5592 18.7188 19.5093 20.2892 20.4395 21.238L23.662 24.5096C23.8613 24.7223 24.2101 24.7223 24.4094 24.5096L27.6319 21.238C28.5621 20.2892 28.5122 18.7188 27.4658 17.8355Z" fill="#F1DC6D"/>
<path d="M26.8235 19.1657C27.081 19.1657 27.2979 18.949 27.198 18.7117C27.1375 18.5677 27.0488 18.4369 26.9369 18.3268C26.825 18.2166 26.6922 18.1292 26.5461 18.0696C26.3999 18.01 26.2432 17.9793 26.085 17.9793C25.9268 17.9793 25.7702 18.01 25.624 18.0696C25.4778 18.1292 25.345 18.2166 25.2332 18.3268C25.1213 18.4369 25.0326 18.5677 24.972 18.7117C24.8722 18.949 25.0891 19.1657 25.3466 19.1657L26.085 19.1657H26.8235Z" fill="white"/>
<path d="M22.7248 19.1657C22.9823 19.1657 23.1992 18.949 23.0994 18.7117C23.0388 18.5677 22.9501 18.4369 22.8382 18.3268C22.7263 18.2166 22.5935 18.1292 22.4474 18.0696C22.3012 18.01 22.1445 17.9793 21.9863 17.9793C21.8281 17.9793 21.6715 18.01 21.5253 18.0696C21.3791 18.1292 21.2463 18.2166 21.1345 18.3268C21.0226 18.4369 20.9339 18.5677 20.8733 18.7117C20.7735 18.949 20.9904 19.1657 21.2479 19.1657L21.9863 19.1657H22.7248Z" fill="white"/>
</svg>
