<svg width="76" height="70" viewBox="0 0 76 70" fill="none" xmlns="http://www.w3.org/2000/svg">
<path d="M38.324 62.4521C41.7752 58.9915 43.9096 54.4287 44.3675 49.5331C44.8253 44.6375 43.5784 39.7086 40.8372 35.5772L47.1432 29.2712L53.2336 35.3616L59.2336 29.3616L53.1432 23.2712L59.1432 17.2712L68.2788 26.4068L74.2788 20.4068L65.1432 11.2712L68.1432 8.27123L62.0528 2.18082L34.7468 29.4868C30.6155 26.7456 25.6865 25.4987 20.7909 25.9566C15.8953 26.4144 11.3325 28.5488 7.87195 32C-0.399051 40.271 -0.297654 53.8304 8.09798 62.226C16.4936 70.6217 30.053 70.7231 38.324 62.4521ZM13.9624 38.0904C18.9244 33.1284 27.0612 33.1893 32.098 38.226C37.1348 43.2628 37.1956 51.3996 32.2336 56.3616C27.2716 61.3236 19.1348 61.2628 14.098 56.226C9.06121 51.1893 9.00036 43.0524 13.9624 38.0904Z" stroke="#9CA3AF" stroke-width="2" stroke-dasharray="4 2"/>
</svg>
