<svg width="16" height="16" viewBox="0 0 16 16" fill="none" xmlns="http://www.w3.org/2000/svg">
<path d="M2.66663 2.66665V13.3333C2.66663 14.0686 3.26463 14.6666 3.99996 14.6666H12C12.7353 14.6666 13.3333 14.0686 13.3333 13.3333V5.33331C13.3334 5.24576 13.3162 5.15904 13.2827 5.07816C13.2491 4.99727 13.2 4.92381 13.138 4.86198L9.80463 1.52865C9.74282 1.46662 9.66936 1.41743 9.58847 1.3839C9.50758 1.35038 9.42085 1.33319 9.33329 1.33331H3.99996C3.26463 1.33331 2.66663 1.93131 2.66663 2.66665ZM12 5.60931L12.0006 13.3333H3.99996V2.66665H9.05729L12 5.60931Z" fill="#3730A3"/>
<path d="M5.33337 4H6.66671V6.66667H5.33337V4ZM8.00004 4H9.33337V6.66667H8.00004V4Z" fill="#3730A3"/>
</svg>
