<?xml version="1.0" encoding="UTF-8" standalone="no"?>
<!-- Created with Inkscape (http://www.inkscape.org/) -->

<svg
   width="5.0270844mm"
   height="2.645834mm"
   viewBox="0 0 5.0270844 2.645834"
   version="1.1"
   id="svg5"
   xmlns:inkscape="http://www.inkscape.org/namespaces/inkscape"
   xmlns:sodipodi="http://sodipodi.sourceforge.net/DTD/sodipodi-0.dtd"
   xmlns="http://www.w3.org/2000/svg"
   xmlns:svg="http://www.w3.org/2000/svg">
  <sodipodi:namedview
     id="namedview7"
     pagecolor="#ffffff"
     bordercolor="#666666"
     borderopacity="1.0"
     inkscape:showpageshadow="2"
     inkscape:pageopacity="0.0"
     inkscape:pagecheckerboard="0"
     inkscape:deskcolor="#d1d1d1"
     inkscape:document-units="mm"
     showgrid="false" />
  <defs
     id="defs2" />
  <g
     inkscape:label="Layer 1"
     inkscape:groupmode="layer"
     id="layer1"
     transform="translate(-79.616938,9.70948)">
    <path
       d="m 80.939852,-7.0636462 c 0.30479,-4.074e-4 0.600117,-0.1058994 0.836187,-0.2986881 0.236071,-0.1927886 0.398444,-0.4610841 0.459742,-0.7596452 h 0.556154 v 0.5291667 h 0.529167 v -0.5291667 h 0.529167 v 0.79375 h 0.529166 v -0.79375 h 0.264584 v -0.5291667 h -2.408238 c -0.0613,-0.298561 -0.223671,-0.5668565 -0.459742,-0.7596451 -0.23607,-0.1927892 -0.531397,-0.2982808 -0.836187,-0.2986882 -0.729456,0 -1.322917,0.5934605 -1.322917,1.3229167 0,0.7294562 0.593461,1.3229166 1.322917,1.3229166 z m 0,-2.1166666 c 0.437621,0 0.79375,0.3561292 0.79375,0.79375 0,0.4376208 -0.356129,0.79375 -0.79375,0.79375 -0.437621,0 -0.79375,-0.3561292 -0.79375,-0.79375 0,-0.4376208 0.356129,-0.79375 0.79375,-0.79375 z"
       fill="#ffffff"
       id="path132"
       style="stroke-width:0.264583" />
  </g>
</svg>
