<svg width="18" height="19" viewBox="0 0 18 19" fill="none" xmlns="http://www.w3.org/2000/svg">
<path d="M5.25 13.25C6.11397 13.2488 6.95112 12.9498 7.62029 12.4033C8.28947 11.8568 8.74974 11.0963 8.9235 10.25H10.5V11.75H12V10.25H13.5V12.5H15V10.25H15.75V8.75H8.9235C8.74974 7.90368 8.28947 7.14316 7.62029 6.59668C6.95112 6.05019 6.11397 5.75115 5.25 5.75C3.18225 5.75 1.5 7.43225 1.5 9.5C1.5 11.5677 3.18225 13.25 5.25 13.25ZM5.25 7.25C6.4905 7.25 7.5 8.2595 7.5 9.5C7.5 10.7405 6.4905 11.75 5.25 11.75C4.0095 11.75 3 10.7405 3 9.5C3 8.2595 4.0095 7.25 5.25 7.25Z" fill="#111827"/>
</svg>
