<?xml version="1.0" encoding="UTF-8" standalone="no"?>
<!-- Created with Inkscape (http://www.inkscape.org/) -->

<svg
   width="210mm"
   height="297mm"
   viewBox="0 0 210 297"
   version="1.1"
   id="svg5"
   inkscape:export-filename="bitmap.png"
   inkscape:export-xdpi="110.55981"
   inkscape:export-ydpi="110.55981"
   inkscape:version="1.2.2 (b0a8486541, 2022-12-01)"
   sodipodi:docname="logo.svg"
   xmlns:inkscape="http://www.inkscape.org/namespaces/inkscape"
   xmlns:sodipodi="http://sodipodi.sourceforge.net/DTD/sodipodi-0.dtd"
   xmlns="http://www.w3.org/2000/svg"
   xmlns:svg="http://www.w3.org/2000/svg">
  <sodipodi:namedview
     id="namedview7"
     pagecolor="#ffffff"
     bordercolor="#666666"
     borderopacity="1.0"
     inkscape:showpageshadow="2"
     inkscape:pageopacity="0.0"
     inkscape:pagecheckerboard="0"
     inkscape:deskcolor="#d1d1d1"
     inkscape:document-units="mm"
     showgrid="false"
     inkscape:zoom="0.914906"
     inkscape:cx="-11.476589"
     inkscape:cy="15.848623"
     inkscape:window-width="3840"
     inkscape:window-height="2091"
     inkscape:window-x="0"
     inkscape:window-y="32"
     inkscape:window-maximized="1"
     inkscape:current-layer="layer1" />
  <defs
     id="defs2" />
  <g
     inkscape:label="Layer 1"
     inkscape:groupmode="layer"
     id="layer1">
    <path
       d="m 93.623262,147.26299 h 1.68455 c 0.113718,0 0.208491,0.0379 0.284321,0.11372 0.0758,0.0758 0.113718,0.17057 0.113718,0.28432 0,0.10898 -0.03791,0.20137 -0.113718,0.2772 -0.07583,0.0711 -0.170603,0.1066 -0.284321,0.1066 h -1.68455 c -0.113744,0 -0.208518,-0.0379 -0.284321,-0.11371 -0.07583,-0.0758 -0.113718,-0.17058 -0.113718,-0.28433 0,-0.10898 0.03789,-0.19902 0.113718,-0.27008 0.0758,-0.0758 0.170577,-0.11372 0.284321,-0.11372 z m 0.760519,-0.88849 c 0.123216,0 0.222726,0.0426 0.298529,0.12794 0.08057,0.0806 0.120835,0.18243 0.120835,0.30562 v 3.16299 c 0,0.0664 0.01185,0.12084 0.03553,0.16349 0.02844,0.0427 0.06398,0.0735 0.106627,0.0924 0.04739,0.019 0.09716,0.0284 0.149278,0.0284 0.05686,0 0.108982,-0.009 0.156369,-0.0284 0.04739,-0.0237 0.101864,-0.0355 0.163459,-0.0355 0.06636,0 0.125598,0.0308 0.177721,0.0924 0.05686,0.0616 0.08527,0.14687 0.08527,0.25588 0,0.13266 -0.07345,0.24164 -0.220345,0.32694 -0.142134,0.0853 -0.296148,0.12795 -0.461989,0.12795 -0.09951,0 -0.210873,-0.007 -0.334089,-0.0213 -0.118445,-0.019 -0.232163,-0.0592 -0.341145,-0.12084 -0.104246,-0.0663 -0.191929,-0.16584 -0.262996,-0.29853 -0.07109,-0.13269 -0.106627,-0.31512 -0.106627,-0.54731 v -3.19853 c 0,-0.12319 0.0403,-0.22506 0.120835,-0.30562 0.0853,-0.0853 0.189548,-0.12794 0.312738,-0.12794 z m 4.713764,0.8174 c 0.123216,0 0.225081,0.0427 0.305646,0.12795 0.08057,0.0805 0.120835,0.18243 0.120835,0.30562 v 1.80538 c 0,0.50229 -0.139779,0.90033 -0.419364,1.19412 -0.279585,0.29379 -0.682361,0.44069 -1.208326,0.44069 -0.525991,0 -0.928767,-0.1469 -1.208325,-0.44069 -0.27485,-0.29379 -0.412274,-0.69183 -0.412274,-1.19412 v -1.80538 c 0,-0.12319 0.0403,-0.22508 0.120835,-0.30562 0.08057,-0.0853 0.182457,-0.12795 0.305647,-0.12795 0.12319,0 0.225081,0.0427 0.305646,0.12795 0.08054,0.0805 0.120836,0.18243 0.120836,0.30562 v 1.80538 c 0,0.28906 0.06395,0.50467 0.191902,0.64683 0.127926,0.13742 0.319855,0.20614 0.575733,0.20614 0.260615,0 0.454898,-0.0687 0.582851,-0.20614 0.127926,-0.14216 0.191902,-0.35777 0.191902,-0.64683 v -1.80538 c 0,-0.12319 0.04027,-0.22508 0.120835,-0.30562 0.08054,-0.0853 0.182431,-0.12795 0.305621,-0.12795 z m 3.133965,-0.0711 c 0.37907,0 0.65865,0.0924 0.8387,0.2772 0.18008,0.18005 0.29853,0.41463 0.35539,0.70366 l -0.12084,-0.0639 0.0569,-0.11374 c 0.0569,-0.10898 0.14452,-0.22508 0.26297,-0.34827 0.11848,-0.12796 0.26064,-0.23456 0.42648,-0.31986 0.17058,-0.09 0.36013,-0.13504 0.56862,-0.13504 0.34118,0 0.59944,0.0734 0.77475,0.22034 0.18008,0.1469 0.30327,0.34354 0.36963,0.58994 0.0663,0.24168 0.0995,0.51176 0.0995,0.81029 v 1.81962 c 0,0.12319 -0.0403,0.22744 -0.12084,0.31274 -0.0806,0.0805 -0.18243,0.12083 -0.30565,0.12083 -0.12319,0 -0.22508,-0.0403 -0.30562,-0.12083 -0.0806,-0.0853 -0.12084,-0.18955 -0.12084,-0.31274 v -1.81962 c 0,-0.15637 -0.019,-0.29615 -0.0569,-0.41936 -0.0379,-0.12793 -0.1066,-0.22982 -0.20611,-0.30562 -0.0995,-0.0758 -0.24167,-0.11375 -0.42648,-0.11375 -0.18005,0 -0.33406,0.0379 -0.46199,0.11375 -0.12795,0.0758 -0.22508,0.17769 -0.29144,0.30562 -0.0616,0.12321 -0.0924,0.26299 -0.0924,0.41936 v 1.81962 c 0,0.12319 -0.0403,0.22744 -0.12083,0.31274 -0.0806,0.0805 -0.18243,0.12083 -0.30565,0.12083 -0.12319,0 -0.22508,-0.0403 -0.30562,-0.12083 -0.0806,-0.0853 -0.12083,-0.18955 -0.12083,-0.31274 v -1.81962 c 0,-0.15637 -0.019,-0.29615 -0.0569,-0.41936 -0.0379,-0.12793 -0.10663,-0.22982 -0.20614,-0.30562 -0.0995,-0.0758 -0.24167,-0.11375 -0.42645,-0.11375 -0.18008,0 -0.33409,0.0379 -0.46202,0.11375 -0.12795,0.0758 -0.22508,0.17769 -0.29144,0.30562 -0.0616,0.12321 -0.0924,0.26299 -0.0924,0.41936 v 1.81962 c 0,0.12319 -0.0403,0.22744 -0.12083,0.31274 -0.0805,0.0805 -0.18243,0.12083 -0.30562,0.12083 -0.12322,0 -0.22508,-0.0403 -0.30565,-0.12083 -0.0806,-0.0853 -0.12084,-0.18955 -0.12084,-0.31274 v -2.93555 c 0,-0.12319 0.0403,-0.22508 0.12084,-0.30562 0.0806,-0.0853 0.18243,-0.12795 0.30565,-0.12795 0.12319,0 0.22508,0.0427 0.30562,0.12795 0.0806,0.0805 0.12083,0.18243 0.12083,0.30562 v 0.30565 l -0.1066,-0.0213 c 0.0426,-0.0806 0.10187,-0.16584 0.17769,-0.25588 0.0758,-0.0948 0.1682,-0.18243 0.27721,-0.26299 0.10898,-0.0805 0.22982,-0.14452 0.36248,-0.19191 0.13269,-0.0521 0.2772,-0.0782 0.4336,-0.0782 z m 6.2398,0 c 0.33179,0 0.62785,0.0853 0.88847,0.25588 0.26538,0.16584 0.47387,0.39566 0.62547,0.68945 0.15637,0.29379 0.23442,0.63497 0.23442,1.02354 0,0.38854 -0.078,0.7321 -0.23442,1.03063 -0.1516,0.29379 -0.35771,0.52597 -0.61833,0.69657 -0.25585,0.16584 -0.54504,0.24876 -0.8673,0.24876 -0.18944,0 -0.36724,-0.0308 -0.53287,-0.0924 -0.1659,-0.0616 -0.313,-0.13978 -0.4408,-0.23456 -0.12329,-0.0948 -0.2204,-0.18954 -0.2913,-0.28432 -0.0664,-0.0995 -0.0998,-0.18243 -0.0998,-0.24878 l 0.22039,-0.0924 v 1.86936 c 0,0.12319 -0.0402,0.22509 -0.12065,0.30565 -0.0807,0.0853 -0.18256,0.12793 -0.30585,0.12793 -0.12304,0 -0.2249,-0.0403 -0.30555,-0.12084 -0.0806,-0.0805 -0.12083,-0.18478 -0.12083,-0.31274 v -4.3571 c 0,-0.12319 0.0403,-0.22508 0.12083,-0.30562 0.0807,-0.0853 0.18251,-0.12795 0.30555,-0.12795 0.12329,0 0.22516,0.0427 0.30585,0.12795 0.0804,0.0805 0.12065,0.18243 0.12065,0.30562 v 0.3483 l -0.12065,-0.064 c 0,-0.0616 0.0331,-0.13504 0.0995,-0.22035 0.0661,-0.09 0.15637,-0.17769 0.26988,-0.26299 0.11377,-0.09 0.24421,-0.16346 0.39105,-0.22035 0.15161,-0.0568 0.31036,-0.0853 0.47625,-0.0853 z m -0.10663,0.78184 c -0.20849,0 -0.39105,0.0521 -0.54742,0.1564 -0.15637,0.10424 -0.2794,0.24638 -0.36962,0.42645 -0.0852,0.17534 -0.1278,0.37672 -0.1278,0.60418 0,0.2227 0.0426,0.42645 0.1278,0.61127 0.0902,0.18004 0.21325,0.32221 0.36962,0.42645 0.15637,0.10425 0.33893,0.1564 0.54742,0.1564 0.20849,0 0.38841,-0.0521 0.54028,-0.1564 0.15637,-0.10424 0.27702,-0.24641 0.36248,-0.42645 0.09,-0.18482 0.13494,-0.38857 0.13494,-0.61127 0,-0.22746 -0.045,-0.42884 -0.13494,-0.60418 -0.0855,-0.18007 -0.20611,-0.32221 -0.36248,-0.42645 -0.15187,-0.10427 -0.33179,-0.1564 -0.54028,-0.1564 z m 5.50095,-0.78184 c 0.1233,0 0.22516,0.0403 0.3056,0.12083 0.0807,0.0805 0.12091,0.18479 0.12091,0.31274 v 3.00662 c 0,0.12319 -0.0402,0.22744 -0.12091,0.31274 -0.0804,0.0805 -0.1823,0.12083 -0.3056,0.12083 -0.12329,0 -0.22516,-0.0403 -0.30559,-0.12083 -0.0807,-0.0853 -0.12092,-0.18955 -0.12092,-0.31274 v -0.3483 l 0.15637,0.064 c 0,0.0616 -0.0331,0.13742 -0.0995,0.22743 -0.0664,0.0853 -0.15637,0.17061 -0.27014,0.25591 -0.11377,0.0853 -0.2487,0.15872 -0.40507,0.22032 -0.15161,0.0569 -0.3175,0.0853 -0.49768,0.0853 -0.32677,0 -0.6231,-0.0829 -0.88848,-0.24876 -0.26538,-0.1706 -0.47625,-0.40278 -0.63262,-0.69657 -0.1516,-0.29853 -0.22727,-0.63971 -0.22727,-1.02354 0,-0.38857 0.0757,-0.72972 0.22727,-1.02351 0.15637,-0.29853 0.36486,-0.53073 0.62574,-0.69657 0.26062,-0.17061 0.54954,-0.25588 0.86704,-0.25588 0.20373,0 0.39079,0.0308 0.56145,0.0924 0.17065,0.0616 0.3175,0.13978 0.44079,0.23455 0.1278,0.0948 0.2249,0.19193 0.29131,0.29144 0.0712,0.0948 0.10663,0.17532 0.10663,0.24165 l -0.25586,0.0924 v -0.51888 c 0,-0.12322 0.0402,-0.22508 0.12092,-0.30565 0.0804,-0.0853 0.1823,-0.12792 0.30559,-0.12792 z m -1.43589,3.16299 c 0.20849,0 0.39105,-0.0521 0.54742,-0.1564 0.15637,-0.10424 0.27729,-0.24641 0.36248,-0.42645 0.09,-0.18008 0.13494,-0.38145 0.13494,-0.60418 0,-0.22744 -0.045,-0.43119 -0.13494,-0.61127 -0.0852,-0.18007 -0.20611,-0.32221 -0.36248,-0.42645 -0.15637,-0.10427 -0.33893,-0.1564 -0.54742,-0.1564 -0.20373,0 -0.38365,0.0521 -0.54002,0.1564 -0.15636,0.10424 -0.27966,0.24638 -0.36962,0.42645 -0.0855,0.18008 -0.12806,0.38383 -0.12806,0.61127 0,0.22273 0.0426,0.4241 0.12806,0.60418 0.09,0.18004 0.21326,0.32221 0.36962,0.42645 0.15637,0.10425 0.33629,0.1564 0.54002,0.1564 z"
       fill="#ffffff"
       id="path686"
       style="stroke-width:0.264583"
       inkscape:export-filename="logo.png"
       inkscape:export-xdpi="110.55981"
       inkscape:export-ydpi="110.55981" />
    <path
       d="m 82.358339,148.46941 c 0,-2.32625 1.91648,-4.21204 4.242723,-4.21204 2.326243,0 4.242726,1.88579 4.242726,4.21204 v 2.41186 h -8.485449 z"
       fill="#ae77f5"
       id="path688"
       style="stroke-width:0.264583" />
    <ellipse
       cx="83.454819"
       cy="150.81238"
       rx="1.0965259"
       ry="1.0798625"
       fill="#ae77f5"
       id="ellipse690"
       style="stroke-width:0.264583" />
    <ellipse
       cx="89.747276"
       cy="150.81238"
       rx="1.0965259"
       ry="1.0798625"
       fill="#ae77f5"
       id="ellipse692"
       style="stroke-width:0.264583" />
    <ellipse
       cx="86.601036"
       cy="151.30281"
       rx="1.4620451"
       ry="1.4398255"
       fill="#ae77f5"
       id="ellipse694"
       style="stroke-width:0.264583" />
    <ellipse
       cx="88.317543"
       cy="151.13295"
       rx="1.2895713"
       ry="1.2699735"
       fill="#ae77f5"
       id="ellipse696"
       style="stroke-width:0.264583" />
    <ellipse
       cx="84.884552"
       cy="151.13295"
       rx="1.2895713"
       ry="1.2699735"
       fill="#ae77f5"
       id="ellipse698"
       style="stroke-width:0.264583" />
    <rect
       x="83.600578"
       y="147.72559"
       width="1.5440369"
       height="2.3371704"
       rx="0.77201712"
       fill="#cca4ff"
       id="rect700"
       style="stroke-width:0.264583" />
    <rect
       x="83.600578"
       y="146.90797"
       width="1.5440369"
       height="2.3371704"
       rx="0.77201712"
       fill="#cca4ff"
       id="rect702"
       style="stroke-width:0.264583" />
    <rect
       x="88.063042"
       y="147.72559"
       width="1.5440369"
       height="2.3371704"
       rx="0.77201712"
       fill="#cca4ff"
       id="rect704"
       style="stroke-width:0.264583" />
    <rect
       x="88.063042"
       y="146.90797"
       width="1.5440369"
       height="2.3371704"
       rx="0.77201712"
       fill="#cca4ff"
       id="rect706"
       style="stroke-width:0.264583" />
    <rect
       x="83.600578"
       y="147.22902"
       width="1.5440369"
       height="2.3371704"
       rx="0.77201712"
       fill="#282828"
       id="rect708"
       style="stroke-width:0.264583" />
    <rect
       x="84.372559"
       y="147.67958"
       width="0.50226647"
       height="0.71803951"
       rx="0.25113377"
       fill="#ffffff"
       id="rect710"
       style="stroke-width:0.264583" />
    <rect
       x="88.057304"
       y="147.22902"
       width="1.5440369"
       height="2.3371704"
       rx="0.77201712"
       fill="#282828"
       id="rect712"
       style="stroke-width:0.264583" />
    <rect
       x="88.82933"
       y="147.67955"
       width="0.50226647"
       height="0.71803951"
       rx="0.25113377"
       fill="#ffffff"
       id="rect714"
       style="stroke-width:0.264583" />
    <path
       d="m 87.508583,148.74368 c -0.241724,-0.20341 -0.59772,-0.16447 -0.821849,0.0606 l -0.0835,0.0866 -0.0879,-0.0866 c -0.219737,-0.22506 -0.580125,-0.264 -0.821849,-0.0606 -0.27686,0.23373 -0.290063,0.64921 -0.04395,0.90024 l 0.85262,0.86561 c 0.05273,0.0563 0.145018,0.0563 0.197749,0 l 0.85262,-0.86561 c 0.246115,-0.25103 0.232913,-0.66651 -0.04395,-0.90024 z"
       fill="#f1dc6d"
       id="path716"
       style="stroke-width:0.264583" />
    <path
       d="m 87.338641,149.0956 c 0.06813,0 0.125518,-0.0573 0.09909,-0.12012 -0.01601,-0.0381 -0.03947,-0.0727 -0.06908,-0.10184 -0.02961,-0.0292 -0.06474,-0.0522 -0.1034,-0.068 -0.03868,-0.0158 -0.08014,-0.0239 -0.121999,-0.0239 -0.04186,0 -0.08329,0.008 -0.121973,0.0239 -0.03868,0.0158 -0.07382,0.0389 -0.103399,0.068 -0.02961,0.0292 -0.05307,0.0638 -0.06911,0.10184 -0.0264,0.0628 0.03098,0.12012 0.09911,0.12012 h 0.195368 z"
       fill="#ffffff"
       id="path718"
       style="stroke-width:0.264583" />
    <path
       d="m 86.254193,149.0956 c 0.06813,0 0.125519,-0.0573 0.09911,-0.12012 -0.01603,-0.0381 -0.0395,-0.0727 -0.06911,-0.10184 -0.02961,-0.0292 -0.06474,-0.0522 -0.103399,-0.068 -0.03868,-0.0158 -0.08014,-0.0239 -0.122,-0.0239 -0.04186,0 -0.08329,0.008 -0.121973,0.0239 -0.03868,0.0158 -0.07382,0.0389 -0.103399,0.068 -0.02961,0.0292 -0.05308,0.0638 -0.06911,0.10184 -0.02641,0.0628 0.03098,0.12012 0.09911,0.12012 h 0.195369 z"
       fill="#ffffff"
       id="path720"
       style="stroke-width:0.264583" />
  </g>
</svg>
