<svg width="16" height="16" viewBox="0 0 16 16" fill="none" xmlns="http://www.w3.org/2000/svg">
<path d="M8.00016 1.33334C4.32416 1.33334 1.3335 4.32401 1.3335 8.00001C1.3335 11.676 4.32416 14.6667 8.00016 14.6667C11.6762 14.6667 14.6668 11.676 14.6668 8.00001C14.6668 4.32401 11.6762 1.33334 8.00016 1.33334ZM2.66683 8.00001C2.66683 6.76934 3.0895 5.63868 3.79216 4.73534L11.2648 12.208C10.3328 12.9372 9.18353 13.3334 8.00016 13.3333C5.0595 13.3333 2.66683 10.9407 2.66683 8.00001ZM12.2082 11.2647L4.7355 3.79201C5.66753 3.06287 6.81681 2.66671 8.00016 2.66668C10.9408 2.66668 13.3335 5.05934 13.3335 8.00001C13.3332 9.18331 12.937 10.3325 12.2082 11.2647Z" fill="#B91C1C"/>
</svg>
