<?xml version="1.0" encoding="UTF-8"?>
<svg width="23px" height="23px" viewBox="0 0 23 23" version="1.1" xmlns="http://www.w3.org/2000/svg" xmlns:xlink="http://www.w3.org/1999/xlink">
    <!-- Generator: Sketch 61 (89581) - https://sketch.com -->
    <title>Group 7</title>
    <desc>Created with Sketch.</desc>
    <defs>
        <polygon id="path-1" points="0 0 19 0 19 17 0 17"></polygon>
    </defs>
    <g id="Login" stroke="none" stroke-width="1" fill="none" fill-rule="evenodd">
        <g id="Login-Active-First-Step" transform="translate(-1140.000000, -642.000000)">
            <g id="Group-7" transform="translate(1141.000000, 643.000000)">
                <rect id="Rectangle" stroke="#F4FDFF" x="0" y="0" width="21" height="21"></rect>
                <g id="Group-3" transform="translate(1.000000, 2.000000)">
                    <mask id="mask-2" fill="white">
                        <use xlink:href="#path-1"></use>
                    </mask>
                    <g id="Clip-2"></g>
                    <path d="M4.41318182,4.9002611 L5.92454545,6.4537859 C5.72590909,6.94203655 5.61363636,7.47467363 5.61363636,8.03394256 C5.61363636,10.2355091 7.35818182,12.0287206 9.5,12.0287206 C10.0440909,12.0287206 10.5622727,11.9139077 11.0286364,11.7091384 L11.875,12.5797041 C11.115,12.7921671 10.3204545,12.9164491 9.5,12.9164491 C6.22681818,12.9164491 3.30772727,11.0261793 1.88272727,8.03394256 C2.48727273,6.76449086 3.36818182,5.71697128 4.41318182,4.9002611 L4.41318182,4.9002611 Z M7.34954545,7.91853786 L9.60363636,10.2355091 C9.56909091,10.2443864 9.53454545,10.2532637 9.5,10.2532637 C8.30818182,10.2532637 7.34090909,9.25900783 7.34090909,8.03394256 C7.34090909,7.98955614 7.34954545,7.96292428 7.34954545,7.91853786 L7.34954545,7.91853786 Z M0.872272727,1.26057441 L3.18681818,3.63968668 C1.77909091,4.77597911 0.665,6.28511749 0,8.03394256 C1.49409091,11.9310705 5.18181818,14.691906 9.5,14.691906 C10.8127273,14.691906 12.0736364,14.4344648 13.2309091,13.9639687 L16.1845455,17 L17.4022727,15.7483029 L2.09,0 L0.872272727,1.26057441 Z M8.57590909,4.16344648 L10.3636364,6.00104439 C10.8559091,6.2229765 11.2531818,6.63133159 11.4690909,7.13733681 L13.2568182,8.97493473 C13.3253333,8.67310705 13.3777592,8.3535248 13.3777592,8.02506527 C13.3863636,5.82349869 11.6418182,4.03916449 9.5,4.03916449 C9.18045455,4.03916449 8.87818182,4.08355091 8.57590909,4.16344648 L8.57590909,4.16344648 Z M9.5,3.15143603 C12.7731818,3.15143603 15.6922727,5.04229765 17.1172727,8.03394256 C16.6077273,9.11697128 15.8909091,10.0490862 15.0359091,10.8042472 L16.2536364,12.0553525 C17.4540909,10.9634465 18.4040909,9.59693647 19,8.03394256 C17.5059091,4.13681462 13.8181818,1.37597911 9.5,1.37597911 C8.40318182,1.37597911 7.34954545,1.5535248 6.35636364,1.88198433 L7.78136364,3.34673629 C8.34272727,3.23133159 8.91272727,3.15143603 9.5,3.15143603 L9.5,3.15143603 Z" id="Fill-1" fill="#102781" mask="url(#mask-2)"></path>
                </g>
            </g>
        </g>
    </g>
</svg>